# xmcd
#
# Track frame offsets: 
#        150
#        15385
#        35930
#        50666
#        75275
#        90436
#        106005
#        116720
#        129375
#        143580
#        162526
#        184915
#        205745
#        224549
#        249413
#        269121
#
# Disc length: 3936 seconds
#
# Revision: 0
# Processed by: cddbd v1.5PL3 Copyright (c) Steve Scherf et al.
# Submitted via: ExactAudioCopy v0.90b4
#
DISCID=e00f5e10
DTITLE=B.B. King - Take It Home and Midnight Believer
DYEAR=1900
DGENRE=
TTITLE0=Better Not Look Down
TTITLE1=Same Old Story
TTITLE2=Happy Birthday Blues
TTITLE3=I've Always Been Lonely
TTITLE4=Second Hand Woman
TTITLE5=Tonight I'm Gonna Make You a Star
TTITLE6=The Beginning Of The End
TTITLE7=A Story Everybody Knows
TTITLE8=Take It Home
TTITLE9=When It All comes Down
TTITLE10=Midnight Believer
TTITLE11=Just Can't Leave Your Love Alone
TTITLE12=Hold On (I Think Our Love Is Changing)
TTITLE13=Never Make A Move Too Soon
TTITLE14=A World Full of Strangers
TTITLE15=Let Me Make You Cry a Little Longer
EXTD=1979 - 1978
EXTT0=
EXTT1=
EXTT2=
EXTT3=
EXTT4=
EXTT5=
EXTT6=
EXTT7=
EXTT8=
EXTT9=
EXTT10=
EXTT11=
EXTT12=
EXTT13=
EXTT14=
EXTT15=
PLAYORDER=
